<svg xmlns="http://www.w3.org/2000/svg" viewBox="0 0 500 500"><g id="freepik--Shadow--inject-70"><path d="M458.88,448.39c0,3.39-93.52,6.14-208.88,6.14s-208.88-2.75-208.88-6.14,93.52-6.13,208.88-6.13S458.88,445,458.88,448.39Z" style="fill:#f5f5f5"></path></g><g id="freepik--Flowers--inject-70"><path d="M225.7,256.07a30.29,30.29,0,0,0,4.84-13.22c.57-4.93-.08-9.9-.24-14.86s.21-10.13,2.63-14.46a18.2,18.2,0,0,0,2.15,7.87,4.17,4.17,0,0,0,1.54-3.46,23.63,23.63,0,0,0-.55-3.9c-.94-5.77,1.07-11.57,3-17.08.33,1.85.65,3.69,1,5.54A42.64,42.64,0,0,1,251,181.16a10,10,0,0,0-.83,3.08,65,65,0,0,0,15.16-10.69,20.39,20.39,0,0,1-4.92,16.57c-2.17,2.4-5,4.36-6.28,7.3a26.26,26.26,0,0,1,13.95-6.62,19.82,19.82,0,0,1-9.45,12.43h3.78c-1.53,3.18-5.67,3.78-8.85,5.31a13.64,13.64,0,0,0-7.48,10.51,44.31,44.31,0,0,1,16.5-9.47,22.86,22.86,0,0,1-12,16.12,41.68,41.68,0,0,0-5.69,2.9,11.42,11.42,0,0,0,5.45,0c-1.78,2.63-5.08,3.69-7.58,5.64-6.27,4.91-6.53,14.44-11.52,20.63-1.79,2.23-4.26,4.13-4.94,6.9" style="fill:#263238"></path><path d="M344.54,308.87a69.59,69.59,0,0,1-19.69-1.29,10.66,10.66,0,0,1,2.75-2,45.53,45.53,0,0,0-23.31,10.36l2.9-5.23c-5.32,3.23-10.86,6.69-13.94,12.09a25.49,25.49,0,0,1-2.14,3.6,4.48,4.48,0,0,1-3.6,1.83,19.27,19.27,0,0,1,3.49-8c-4.9,2-8.67,6-11.85,10.2s-6,8.76-9.73,12.46c-3.59,3.52-.68,9.93-5.48,11.44l-.5,6.1c2.41-8.19,13.38-16.7,21.84-16.57,3.38.06,6.82,1.39,10,.41a12.07,12.07,0,0,1-4.53-3.61,43.61,43.61,0,0,1,6.64,1.41,24.34,24.34,0,0,0,20.75-5.28,47,47,0,0,0-20-3.2A14.52,14.52,0,0,1,311.41,330c3.65.85,7.48,3.13,10.87,1.52l-3.13-2.53a21,21,0,0,0,16.13-4,27.94,27.94,0,0,0-16-3.84c3.06-1.56,6.68-1.31,10.07-1.85A21.7,21.7,0,0,0,344.54,308.87Z" style="fill:#263238"></path><path d="M199.87,150.65a1.51,1.51,0,0,0-.65,1.15c-1,4.72-2,9.81-.07,14.23,1.52,3.5,4.63,6,7.63,8.37a18.93,18.93,0,0,0-7.18.67c2,1.79,4.7,2.3,7.23,3.1s5.19,2.23,5.93,4.77A14,14,0,0,0,202,182a53.79,53.79,0,0,1,14.51,11.42c2.2,2.45,4.33,5.22,7.43,6.33l3,.62c.6-3.55-1-7-2.18-10.46a38.79,38.79,0,0,1-1.53-18l-4.27,3.79a29.17,29.17,0,0,0-1.14-16.49,11.61,11.61,0,0,0-3.43,4.25,21,21,0,0,0-13.44-12.84A1.44,1.44,0,0,0,199.87,150.65Z" style="fill:#263238"></path><path d="M219.43,138c4.75,12.48,3.81,26.05,4.07,39.14a117,117,0,0,0,2,19.58c1.33,7.14,3,14.21,4.73,21.25,3.5,13.94,7.5,27.75,11,41.71,2.69,10.91,5.83,21.71,8.46,32.63a236.25,236.25,0,0,1,5.61,37.13c.07,1,1.57,1,1.5,0a238.47,238.47,0,0,0-4.79-33.75c-2.34-10.43-5.34-20.7-8-31.05-3.57-14-7.35-27.93-11-41.9-1.83-7-3.56-14.09-5-21.2a127.27,127.27,0,0,1-2.81-20.18c-.63-14.6,1.07-29.81-4.24-43.76-.34-.89-1.79-.5-1.45.4Z" style="fill:#263238"></path><path d="M260.18,303.68c1.18-9.29,2.62-19.17,8.76-26.23q-1,4.32-1.72,8.71a62.18,62.18,0,0,1,22.35-6.08A14.71,14.71,0,0,0,287,284.8L299.9,286,297,287.9c6.35,2.42,13,5.62,16.23,11.59a1.64,1.64,0,0,1,.29,1.14c-.21.86-1.42.89-2.26.65-3-.86-5.58-2.66-8.35-4s-6-2.37-8.94-1.47l2.65,2.53a2,2,0,0,1,.82,1.43c-.08,1.31-2.1,1.1-3.26.46l-12.64-7a7.13,7.13,0,0,0,1.28,3.7,18.37,18.37,0,0,0-14.16.81,9.79,9.79,0,0,1,6.2,3.78,22.87,22.87,0,0,0-14,3.79" style="fill:#263238"></path><path d="M260,430.23c5.59-8.83,6.41-19.76,7.07-30.19.23-3.71.47-7.42.7-11.13,4.89,3.11,6.09,9.6,6.83,15.34a47.93,47.93,0,0,0,2.89-26.6,16.79,16.79,0,0,1,7.14,9.43,60.32,60.32,0,0,1,6.36-20.93,14.31,14.31,0,0,1,1.94,6.2,51.25,51.25,0,0,0,10.44-27,33.82,33.82,0,0,1-.72,32.83,21.07,21.07,0,0,0,7.78-1.73,52.15,52.15,0,0,1-11.8,16.22,9.84,9.84,0,0,0,4.44-1.93c-.75,4.37-4,7.79-7.2,10.92l-10.13,10.07a15.09,15.09,0,0,0,9.3-2.48,17.07,17.07,0,0,1-6.83,11.38,27.26,27.26,0,0,1-12.56,4.93c-5.34.79-11.82,1.06-14.44,5.78" style="fill:#263238"></path><path d="M260.18,411.79a35.55,35.55,0,0,0-13-9.88c-5.31-2.36-11.53-3.63-15.17-8.17l5.28,1.86a28.24,28.24,0,0,1-8-13.82l3.67,3.81A18.23,18.23,0,0,1,236,365c-.71,4.09-1.42,8.27-.73,12.37a18.56,18.56,0,0,0,5.44,10.21,71.15,71.15,0,0,0,8.82,7.12c6.54,4.49,10.26,11.65,10.7,17.13" style="fill:#263238"></path><path d="M234.63,338.29q-3.78-9.51-7.76-18.92c-.51,1.27-1.06,2.52-1.64,3.76-2.88-3.57-1.47-9.91-5.38-12.32q-1.15,2.54-2.3,5.05c-2.87-5.94-8.2-10.26-13.35-14.38-2.57-2.05-5.36-4.19-8.64-4.45a1.87,1.87,0,0,0-1.05.16c-1,.58-.36,2.12.37,3q8.94,11.13,16.75,23.09l-5.42-.89c2.11,6.11,9,9.36,11.88,15.13a10.73,10.73,0,0,0-7.42,1.23c1.38,3.46,5.35,5,8.91,6.06s7.54,2.46,9.11,5.83a13.16,13.16,0,0,1-8.23-3.72c1.25,3.67,5.25,5.48,8.77,7.11,8.05,3.73,19.09,11.43,25.81,17.22l-1.26-2.39c-.27-7.76-4.06-14.91-7.76-21.73q-5.06-9.34-10.12-18.68C235.48,331.74,235.05,335,234.63,338.29Z" style="fill:#263238"></path><path d="M298.05,200.41c0,2.46-1.37,5.17-2.26,7.42-1.73,4.37-3.68,8.67-5.63,12.95-4.78,10.44-9.77,20.78-14.48,31.25-2.39,5.33-4.72,10.69-6.73,16.18a204.75,204.75,0,0,0-6.72,22.63c-3.63,15.23-5.81,30.76-7.76,46.28l-.75,6a24.54,24.54,0,0,0-.33,2.8c0,.26,0,.52.06.77l.33,4.27L255.11,368,257,391.67l2,25,1.61,20.6c.28,3.56.53,7.12.83,10.67,0,.17,0,.33,0,.49.08,1,1.58,1,1.5,0l-.58-7.47-1.46-18.62L259,397.89,257,373.43l-1.5-19.22c-.22-2.73-.66-5.55-.65-8.29a26.07,26.07,0,0,1,.36-3l.75-6q.75-6,1.58-12c1.09-7.76,2.32-15.5,3.83-23.19a212.13,212.13,0,0,1,12.94-42.92c4.52-10.48,9.48-20.76,14.29-31.11,2.19-4.71,4.36-9.42,6.42-14.19A88.31,88.31,0,0,0,299,203.27a10.73,10.73,0,0,0,.55-2.86.75.75,0,0,0-1.5,0Z" style="fill:#263238"></path><path d="M257.15,375c-4.34-12.35-7.12-25.25-9.66-38.07-2.83-14.29-5.17-28.67-7.42-43.06-1.08-6.87-2.13-13.74-3.22-20.61-.16-.95-1.6-.55-1.45.4,2.07,13,4,26,6.18,39,2.4,14.33,5,28.66,8.39,42.8a206.92,206.92,0,0,0,5.73,20c.32.9,1.77.51,1.45-.4Z" style="fill:#263238"></path><path d="M163.8,81.36a85.6,85.6,0,0,0-10-12.51c-3.16-3.14-6.92-5.95-11.3-6.77s-9.45.82-11.55,4.75c-1.46,2.76-1.32,6.19-3,8.85a23.42,23.42,0,0,1-3.39,3.73,18.33,18.33,0,0,0-5.33,12.08,14.36,14.36,0,0,0,5.46,11.8,34.31,34.31,0,0,1,3.57,2.6c3.57,3.47,2.77,9.45,5.19,13.81,2.2,4,6.7,6,11,7.54a150.7,150.7,0,0,0,24.07,6.61l16.1-16A252.18,252.18,0,0,0,163.8,81.36Z" style="fill:#FF2727"></path><g style="opacity:0.2"><path d="M163.8,81.36a85.6,85.6,0,0,0-10-12.51c-3.16-3.14-6.92-5.95-11.3-6.77s-9.45.82-11.55,4.75c-1.46,2.76-1.32,6.19-3,8.85a23.42,23.42,0,0,1-3.39,3.73,18.33,18.33,0,0,0-5.33,12.08,14.36,14.36,0,0,0,5.46,11.8,34.31,34.31,0,0,1,3.57,2.6c3.57,3.47,2.77,9.45,5.19,13.81,2.2,4,6.7,6,11,7.54a150.7,150.7,0,0,0,24.07,6.61l16.1-16A252.18,252.18,0,0,0,163.8,81.36Z"></path></g><path d="M205.36,52.57a42.62,42.62,0,0,1,2.5-10.91,15.22,15.22,0,0,1,7.32-8.17,16.57,16.57,0,0,1,6.65-1.26,30.07,30.07,0,0,1,23,10.56c2.46,2.92,5.12,6.71,8.93,6.38,1.55-.14,3-1,4.49-1.27,4.38-.78,8.05,3.13,10.77,6.65l6.83,8.82c1.7,2.2,3.45,4.5,4.05,7.22,1.29,5.8-2.95,11.63-2.15,17.51.36,2.67,1.75,5.24,1.37,7.9-.36,2.48-2.18,4.47-3.92,6.28l-14.26,14.9a112.54,112.54,0,0,1-12.72,12c-8,6.15-17.56,10-26.94,13.83" style="fill:#FF2727"></path><g style="opacity:0.30000000000000004"><path d="M277.71,88.1c-.8-5.88,3.44-11.71,2.15-17.51-.6-2.72-2.35-5-4.05-7.22L269,54.55c-2.72-3.52-6.39-7.43-10.77-6.65-1.53.28-2.94,1.13-4.49,1.27-3.81.33-6.47-3.46-8.93-6.38a30.07,30.07,0,0,0-23-10.56,16.57,16.57,0,0,0-6.65,1.26,15.22,15.22,0,0,0-7.32,8.17,42.62,42.62,0,0,0-2.5,10.91L221.24,143c9.38-3.8,18.9-7.68,26.94-13.83a112.54,112.54,0,0,0,12.72-12l14.26-14.9c1.74-1.81,3.56-3.8,3.92-6.28C279.46,93.34,278.07,90.77,277.71,88.1Z"></path></g><path d="M166.72,119.89,152,111.63c-2.61-1.47-5.29-3-7.21-5.3-4-4.77-3.8-11.64-3.09-17.8a21.1,21.1,0,0,0,.21-5.14c-.22-1.71-.87-3.33-1.19-5a13.25,13.25,0,0,1,1.48-8.92c1.91-3.37,5.18-5.72,7.51-8.8s3.58-6.62,5.48-9.87,4.7-6.33,8.41-7c1.94-.37,4,0,5.91-.3,5.91-.78,10.42-6.69,16.38-6.65,4,0,7.56,2.82,11.56,3.18,2.53.22,5-.54,7.49-1.14,8.29-2,18-1.81,24.2,4C233,46.43,235,51.66,239,55.05c1.6,1.36,3.52,2.44,4.64,4.22,1.49,2.34,1.24,5.35.85,8.1a118.49,118.49,0,0,1-20.11,50.89" style="fill:#FF2727"></path><path d="M151.85,81.9c12.59,4.84,23.38,13.31,33.56,22C174.6,96,164,87.65,151.85,81.9Z" style="fill:#fff;opacity:0.30000000000000004"></path><path d="M194.24,98C182.92,84.47,177.41,67.22,167,53.08c11.3,13.57,16.8,30.82,27.29,44.94Z" style="fill:#fff;opacity:0.30000000000000004"></path><path d="M199.18,93.94c-.2-7.57-.5-15.14-1.19-22.69-.85-7.4-.68-15.39-4.68-22,4.55,6.28,4.52,14.49,5.43,21.89a169.39,169.39,0,0,1,.44,22.75Z" style="fill:#fff;opacity:0.30000000000000004"></path><path d="M206.86,93.23c4.11-13.71,8.72-28.74,13-42.39a356.35,356.35,0,0,1-13,42.39Z" style="fill:#fff;opacity:0.30000000000000004"></path><path d="M212.43,97.78c2.19-6.11,6.72-11,10.66-16,4.15-4.92,7-10.65,9.9-16.37a61,61,0,0,1-9.32,16.84c-4,5-8.49,9.64-11.24,15.5Z" style="fill:#fff;opacity:0.30000000000000004"></path><path d="M194.33,110.71c.76-2.93,1.9-5.91,4.17-7.91a10.43,10.43,0,0,1,9.49-2,13.54,13.54,0,0,1,7.81,6,5.21,5.21,0,0,1,.91,2.52c0,2.19-2.2,3.68-4.28,4.38a19.56,19.56,0,0,1-15.6-1.5" style="fill:#263238"></path><path d="M196.5,104.86l-5.58-3.68c-1.64-1.08-3.34-2.47-5.34-2.81-.94-.16-1.35,1.28-.39,1.44,1.91.33,3.57,1.74,5.15,2.78l5.41,3.56c.81.53,1.56-.76.75-1.29Z" style="fill:#263238"></path><path d="M199.19,102.27c-1.46-1.8-3-3.72-3.56-6a31.29,31.29,0,0,1-.24-3.62,10.72,10.72,0,0,0-1.21-3.31c-.43-.86-1.72-.1-1.29.76A8,8,0,0,1,194,93.67a11.42,11.42,0,0,0,.4,3.59,19.65,19.65,0,0,0,3.78,6.07c.61.75,1.66-.32,1.06-1.06Z" style="fill:#263238"></path><path d="M203.76,101.33A31.39,31.39,0,0,1,202.47,94c0-2.06,1.52-4.43-.12-6.22-.65-.71-1.71.35-1.06,1.06s.19,2,0,2.9A10.47,10.47,0,0,0,201,95a45.08,45.08,0,0,0,1.31,6.78c.22.94,1.67.54,1.45-.4Z" style="fill:#263238"></path><path d="M208.7,101.74q.83-6,2-11.85c.18-.94-1.27-1.34-1.45-.4q-1.14,5.9-2,11.85a.78.78,0,0,0,.53.92.75.75,0,0,0,.92-.52Z" style="fill:#263238"></path><path d="M212.65,104.1c3.45-2.78,3.85-7.5,6.16-11,.53-.81-.76-1.57-1.29-.76-2.23,3.41-2.62,8.06-5.93,10.73-.76.6.31,1.66,1.06,1.06Z" style="fill:#263238"></path><path d="M216.81,107.11a22.65,22.65,0,0,0,7.83-8.79c.43-.86-.86-1.62-1.29-.75a21.3,21.3,0,0,1-7.29,8.24c-.81.53-.06,1.83.75,1.3Z" style="fill:#263238"></path><path d="M222.11,144.55c9.27-4.86,24.81-20.27,30.62-30.7a78.58,78.58,0,0,0,8.67-24.36,2.53,2.53,0,0,0-3.55-2.69,47.26,47.26,0,0,0-11.71,7.72c-2.64,2.37-5.31,5.19-8.84,5.57-2,.21-4.08-.44-6.12-.33-4.34.23-8,3.81-12.32,4-1.85.06-3.69-.52-5.54-.44-2.31.1-4.45,1.2-6.66,1.9-11.34,3.59-24.33-3.39-35.31,1.21-3.4,1.43-6.35,3.9-9.91,4.87-2.31.63-4.78.59-7.07,1.29-4.05,1.25-7,4.62-9.76,7.87-.89,1.06-1.84,2.38-1.45,3.71a4.08,4.08,0,0,0,1.23,1.71,35.49,35.49,0,0,0,8.69,6.08,70.46,70.46,0,0,0,13.64,4.62c18.13,4.81,36.71,9.65,55.39,8Z" style="fill:#FF2727"></path><g style="opacity:0.2"><path d="M222.11,144.55c9.27-4.86,24.81-20.27,30.62-30.7a78.58,78.58,0,0,0,8.67-24.36,2.53,2.53,0,0,0-3.55-2.69,47.26,47.26,0,0,0-11.71,7.72c-2.64,2.37-5.31,5.19-8.84,5.57-2,.21-4.08-.44-6.12-.33-4.34.23-8,3.81-12.32,4-1.85.06-3.69-.52-5.54-.44-2.31.1-4.45,1.2-6.66,1.9-11.34,3.59-24.33-3.39-35.31,1.21-3.4,1.43-6.35,3.9-9.91,4.87-2.31.63-4.78.59-7.07,1.29-4.05,1.25-7,4.62-9.76,7.87-.89,1.06-1.84,2.38-1.45,3.71a4.08,4.08,0,0,0,1.23,1.71,35.49,35.49,0,0,0,8.69,6.08,70.46,70.46,0,0,0,13.64,4.62c18.13,4.81,36.71,9.65,55.39,8Z"></path></g><path d="M166.33,119.33a74.59,74.59,0,0,0,34.8,21.86c6.1,1.7,12.42,2.42,18.66,3.53-2.53-.27-5-.58-7.56-.9-17.79-1.52-35.06-10.14-45.9-24.49Z" style="opacity:0.30000000000000004"></path><path d="M220.83,144.37a35.39,35.39,0,0,1-13.05-10.83,99,99,0,0,1-6.21-11.16,30.36,30.36,0,0,1-1.4-4,82.09,82.09,0,0,0,6.23,11c3.32,6.25,8.56,11.1,14.43,15Z" style="opacity:0.30000000000000004"></path><path d="M221.53,144.6c2.61-9,.81-18.39,2.65-27.46-.46,9.16,1.29,18.83-2.65,27.46Z" style="opacity:0.30000000000000004"></path><path d="M222.14,143.72c9.69-9.45,15.16-22,21.12-33.92-.56,1.59-1.19,3.14-1.8,4.71-4.4,10.83-10,21.82-19.32,29.21Z" style="opacity:0.30000000000000004"></path><path d="M316.65,129.16a9.3,9.3,0,0,0,.19-3.78c-.74-3.15-4.33-4.57-7.44-5.5-3.91-1.16-7.9-2.34-12-2.35s-8.37,1.28-11.07,4.35a1.38,1.38,0,0,1-.54.45c-.79.29-1.25-.84-1.66-1.58-1.07-2-3.83-1.9-6-1.6-4.61.64-9.49,1.4-13.05,4.4-5.45,4.57-6,12.94-3.94,19.76s6.12,12.86,8.59,19.53l27.91,23A229.14,229.14,0,0,0,316.65,129.16Z" style="fill:#FF2727"></path><g style="opacity:0.30000000000000004"><path d="M316.65,129.16a9.3,9.3,0,0,0,.19-3.78c-.74-3.15-4.33-4.57-7.44-5.5-3.91-1.16-7.9-2.34-12-2.35s-8.37,1.28-11.07,4.35a1.38,1.38,0,0,1-.54.45c-.79.29-1.25-.84-1.66-1.58-1.07-2-3.83-1.9-6-1.6-4.61.64-9.49,1.4-13.05,4.4-5.45,4.57-6,12.94-3.94,19.76s6.12,12.86,8.59,19.53l27.91,23A229.14,229.14,0,0,0,316.65,129.16Z"></path></g><path d="M378.92,171.88c-3.46-10.66-8.9-21.1-17.79-27.94-1.31-1-2.88-2-4.51-1.71a6.36,6.36,0,0,0-3.39,2.32c-14.05,15.49-18.84,37-23.1,57.48l5,3q6.81-1.1,13.6-2.32c9.54-1.71,19.57-3.85,26.76-10.36a16.26,16.26,0,0,0,4.14-5.4C381.71,182.23,380.51,176.77,378.92,171.88Z" style="fill:#FF2727"></path><g style="opacity:0.2"><path d="M378.92,171.88c-3.46-10.66-8.9-21.1-17.79-27.94-1.31-1-2.88-2-4.51-1.71a6.36,6.36,0,0,0-3.39,2.32c-14.05,15.49-18.84,37-23.1,57.48l5,3q6.81-1.1,13.6-2.32c9.54-1.71,19.57-3.85,26.76-10.36a16.26,16.26,0,0,0,4.14-5.4C381.71,182.23,380.51,176.77,378.92,171.88Z"></path></g><path d="M367.55,161.45a53.55,53.55,0,0,0-27.48-31.79c-4-1.91-8.51-3.34-12.77-2.19a6.93,6.93,0,0,1-2.53.45,5.94,5.94,0,0,1-2.71-1.43,24,24,0,0,0-35.64,8.39c-4,7.9-3.36,17.27-2.61,26.1l55.5,32.68q10.57-5.7,20.75-12.1c2.84-1.78,5.76-3.73,7.38-6.66C369.66,170.86,368.93,165.85,367.55,161.45Z" style="fill:#FF2727"></path><path d="M306.37,135q-5.31,23.44-9,47.17a249.12,249.12,0,0,1,9-47.17Z" style="fill:#fff;opacity:0.30000000000000004"></path><path d="M310,183.9c7.36-13.3,15.63-27.82,23.34-40.93A455.39,455.39,0,0,1,310,183.9Z" style="fill:#fff;opacity:0.30000000000000004"></path><path d="M323.69,189.93c9.77-8.63,19.95-17,27.88-27.4-7.12,11.07-17.47,19.56-27.88,27.4Z" style="fill:#fff;opacity:0.30000000000000004"></path><path d="M296.25,204.68c-3.93-7.35-13.33-10.77-17.62-20.53-4.77-10.87-11.53-22.77-11.57-34.64,0-1.73.26-3.65,1.58-4.76a5.74,5.74,0,0,1,3.38-1.1c6.47-.41,12.7,3,17.27,7.61,2.41,2.41,4.52,5.21,7.46,6.94,3.23,1.9,7.25,2.38,10.1,4.82,2.34,2,3.69,5.14,6.46,6.46,2.92,1.38,6.51.26,9.54,1.39,3.54,1.31,5.5,5.35,9,6.69,4.32,1.65,9.8-1.18,13.54,1.54,2.71,2,3.26,6.14,6.19,7.76,2.37,1.32,6.2,1,6.89,3.64.36,1.37-.5,2.75-1.4,3.85-5.49,6.69-13.84,10.54-22.34,12.15s-17.24,1.19-25.87.65c-4.31-.28-8.74-.61-12.63-2.47" style="fill:#FF2727"></path><g style="opacity:0.2"><path d="M296.25,204.68c-3.93-7.35-13.33-10.77-17.62-20.53-4.77-10.87-11.53-22.77-11.57-34.64,0-1.73.26-3.65,1.58-4.76a5.74,5.74,0,0,1,3.38-1.1c6.47-.41,12.7,3,17.27,7.61,2.41,2.41,4.52,5.21,7.46,6.94,3.23,1.9,7.25,2.38,10.1,4.82,2.34,2,3.69,5.14,6.46,6.46,2.92,1.38,6.51.26,9.54,1.39,3.54,1.31,5.5,5.35,9,6.69,4.32,1.65,9.8-1.18,13.54,1.54,2.71,2,3.26,6.14,6.19,7.76,2.37,1.32,6.2,1,6.89,3.64.36,1.37-.5,2.75-1.4,3.85-5.49,6.69-13.84,10.54-22.34,12.15s-17.24,1.19-25.87.65c-4.31-.28-8.74-.61-12.63-2.47"></path></g><path d="M298.24,205.14c11.49-6.33,25.4-7.74,35.62-16.4a39,39,0,0,1-3.69,3.31c-9.44,6.93-21.32,8.67-31.93,13.09Z" style="opacity:0.30000000000000004"></path><path d="M297.54,205.23c.83-3.87,4.1-6.5,6.07-9.79a79.6,79.6,0,0,0,8.58-17.1A48,48,0,0,1,302,199.06c-1.72,1.92-3.54,3.73-4.46,6.17Z" style="opacity:0.30000000000000004"></path><path d="M297.54,205.23c-.62-6.8-4.92-12.3-6.63-18.82s-2.85-13.5-.37-19.85c-1.71,6.52-.42,13.23,1.33,19.59s5.86,12.28,5.67,19.08Z" style="opacity:0.30000000000000004"></path><path d="M208.12,208.14c-.67-1.62-1.58-3.29-3.16-4a7.14,7.14,0,0,0-3-.49c-8.12,0-15.89,3.23-23.17,6.83-6,3-11.85,6.25-16.65,10.86-3,2.84-5.58,6.49-5.55,10.59a4,4,0,0,1-.13,1.43c-.29.82-1.15,1.28-1.9,1.73-5.58,3.3-8.53,10.1-8.25,16.58s3.41,12.58,7.67,17.48a10.48,10.48,0,0,0,4.05,3.2,12.06,12.06,0,0,0,5.32.31c14.66-1.36,29.52-2.77,43.32-7.89l3-1.51q.68-12.27,1.34-24.55C211.6,228.37,212.09,217.66,208.12,208.14Z" style="fill:#FF2727"></path><g style="opacity:0.2"><path d="M208.12,208.14c-.67-1.62-1.58-3.29-3.16-4a7.14,7.14,0,0,0-3-.49c-8.12,0-15.89,3.23-23.17,6.83-6,3-11.85,6.25-16.65,10.86-3,2.84-5.58,6.49-5.55,10.59a4,4,0,0,1-.13,1.43c-.29.82-1.15,1.28-1.9,1.73-5.58,3.3-8.53,10.1-8.25,16.58s3.41,12.58,7.67,17.48a10.48,10.48,0,0,0,4.05,3.2,12.06,12.06,0,0,0,5.32.31c14.66-1.36,29.52-2.77,43.32-7.89l3-1.51q.68-12.27,1.34-24.55C211.6,228.37,212.09,217.66,208.12,208.14Z"></path></g><path d="M216,261.7a74.26,74.26,0,0,1-39.13-16c-.73-.61-1.45-1.23-2.17-1.85.78.54,1.56,1.08,2.33,1.64a101.88,101.88,0,0,0,39,16.23Z" style="opacity:0.30000000000000004"></path><path d="M247.83,223.52c-1.54-5.28-5-9.79-8.8-13.78-2-2.13-4.29-4.23-7.14-4.94s-6.37.5-7.29,3.29a17.06,17.06,0,0,0-15.93-6.52,25,25,0,0,0-7.6,2.7c-6.23,3.19-12.15,8.25-13.5,15.12-1.4,7.19,2.54,14.3,6.88,20.21a114.55,114.55,0,0,0,11.24,13.15l12.61,15c7.41-1.54,14.41-11.85,21.34-14.91,2.18-1,4.42-2.08,5.83-4a12.87,12.87,0,0,0,1.91-4.69A53.4,53.4,0,0,0,248.87,233,30.86,30.86,0,0,0,247.83,223.52Z" style="fill:#FF2727"></path><path d="M223.41,261.82c5.62-12.27,4.89-26,4.7-39.2,1.22,13.1,1.87,27.32-4.7,39.2Z" style="fill:#fff;opacity:0.30000000000000004"></path><path d="M223.6,261.22a147.15,147.15,0,0,1-9.36-19.28c-2.55-6.66-4.89-13.52-5.59-20.66,2.78,14,8.92,27.08,14.95,39.94Z" style="fill:#fff;opacity:0.30000000000000004"></path><path d="M211,271.49c-1.1-2.41-2-5.05-1.54-7.66a9.1,9.1,0,0,1,5.31-6.61,11.82,11.82,0,0,1,8.62-.21,4.45,4.45,0,0,1,2,1.2c1.23,1.47.54,3.71-.48,5.33a17.12,17.12,0,0,1-11.4,7.58" style="fill:#263238"></path><path d="M209.33,266.22l-5.88.59c-1.78.18-3.71.19-5.31,1.09-.84.47-.08,1.76.76,1.29,1.46-.81,3.36-.76,5-.92l5.46-.55c.95-.09,1-1.6,0-1.5Z" style="fill:#263238"></path><path d="M209.76,263a14.94,14.94,0,0,1-5.63-2,13.87,13.87,0,0,1-2.1-2.23,8.7,8.7,0,0,0-2.78-1.76c-.87-.39-1.64.9-.76,1.3a7.16,7.16,0,0,1,2.72,1.8,11.25,11.25,0,0,0,2.29,2.28,16.59,16.59,0,0,0,5.86,2.05c.94.19,1.34-1.25.4-1.45Z" style="fill:#263238"></path><path d="M212.35,259.94a32.47,32.47,0,0,1-4.81-4.1,11.47,11.47,0,0,1-1.49-2.59,3.06,3.06,0,0,0-2.35-1.84c-.4-.06-.75.38-.75.75a.78.78,0,0,0,.75.75c.81.1,1.17,1.37,1.45,2a9.06,9.06,0,0,0,1.6,2.32,37.46,37.46,0,0,0,4.54,3.8.77.77,0,0,0,1.06,0,.75.75,0,0,0,0-1.06Z" style="fill:#263238"></path><path d="M215.83,257.38q-2.73-4.49-5.2-9.11c-.46-.86-1.75-.1-1.3.75q2.47,4.64,5.2,9.11c.5.83,1.8.07,1.3-.75Z" style="fill:#263238"></path><path d="M219.82,257.05a11.38,11.38,0,0,0-.43-5.52,31.52,31.52,0,0,1-1.44-5.39.78.78,0,0,0-.75-.75.76.76,0,0,0-.75.75,27.54,27.54,0,0,0,1.32,5.22,10.63,10.63,0,0,1,.61,5.29c-.2.94,1.25,1.34,1.44.4Z" style="fill:#263238"></path><path d="M224.34,256.63a19.94,19.94,0,0,0,.43-10.34c-.2-.94-1.65-.54-1.44.4a18.5,18.5,0,0,1-.43,9.54c-.29.92,1.16,1.32,1.44.4Z" style="fill:#263238"></path><path d="M200.64,282.58a98.89,98.89,0,0,1-26.17-1A41.2,41.2,0,0,1,162.53,278a19.25,19.25,0,0,1-8.83-8.55c-.93-2-1.24-4.68.51-5.95a5.15,5.15,0,0,1,2.06-.74A38.92,38.92,0,0,1,181,266.11c-.84-1.89.17-4.21,1.84-5.45a11.09,11.09,0,0,1,5.87-1.74c11.81-.87,23.35,4,35.19,4.09a3.57,3.57,0,0,1,2,.4c1.42,1,.53,3.24-.59,4.56-7.07,8.36-14.2,11.35-24.65,14.61" style="fill:#FF2727"></path><g style="opacity:0.30000000000000004"><path d="M200.64,282.58a98.89,98.89,0,0,1-26.17-1A41.2,41.2,0,0,1,162.53,278a19.25,19.25,0,0,1-8.83-8.55c-.93-2-1.24-4.68.51-5.95a5.15,5.15,0,0,1,2.06-.74A38.92,38.92,0,0,1,181,266.11c-.84-1.89.17-4.21,1.84-5.45a11.09,11.09,0,0,1,5.87-1.74c11.81-.87,23.35,4,35.19,4.09a3.57,3.57,0,0,1,2,.4c1.42,1,.53,3.24-.59,4.56-7.07,8.36-14.2,11.35-24.65,14.61"></path></g><path d="M168,272c8.07,2,16,3.92,24.16,5.71A68.59,68.59,0,0,1,168,272Z" style="opacity:0.30000000000000004"></path><path d="M193.6,269.87a63,63,0,0,1,15.74,3.46,63.3,63.3,0,0,1-15.74-3.46Z" style="opacity:0.30000000000000004"></path><path d="M260.76,224A1.74,1.74,0,0,0,258.6,222c-7,.32-13.39,4.23-18.36,9.14a35.78,35.78,0,0,0-5.35,6.56,57.56,57.56,0,0,0-3.38,6.7q-5.44,12.07-10.9,24.14c-7.19,2.49-14.5,4.6-21.82,6.7l-21.71,9.88a2.91,2.91,0,0,0-1.45,1.4,2,2,0,0,0,1,2.21,5.75,5.75,0,0,0,2.57.56c6.64.34,13.41.07,19.75-1.94,2.63-.84,5.16-2,7.77-2.84,7.31-2.46,15.12-3,22.6-4.82s15.08-5.54,18.85-12.27c2.8-5,3.14-11.05,5.63-16.21.75-1.56,1.69-3,2.53-4.53A37.88,37.88,0,0,0,260.76,224Z" style="fill:#FF2727"></path><g style="opacity:0.2"><path d="M260.76,224A1.74,1.74,0,0,0,258.6,222c-7,.32-13.39,4.23-18.36,9.14a35.78,35.78,0,0,0-5.35,6.56,57.56,57.56,0,0,0-3.38,6.7q-5.44,12.07-10.9,24.14c-7.19,2.49-14.5,4.6-21.82,6.7l-21.71,9.88a2.91,2.91,0,0,0-1.45,1.4,2,2,0,0,0,1,2.21,5.75,5.75,0,0,0,2.57.56c6.64.34,13.41.07,19.75-1.94,2.63-.84,5.16-2,7.77-2.84,7.31-2.46,15.12-3,22.6-4.82s15.08-5.54,18.85-12.27c2.8-5,3.14-11.05,5.63-16.21.75-1.56,1.69-3,2.53-4.53A37.88,37.88,0,0,0,260.76,224Z"></path></g><path d="M205.79,281.12c7.54-1.63,15.22-.78,22.87-1.24-7.5,1.83-15.23,1-22.87,1.24Z" style="opacity:0.30000000000000004"></path><path d="M237.5,276.53a42.76,42.76,0,0,0-4.6-6.43c-1.72-2-3.91-3.83-4.84-6.38,1.63,2.15,3.76,3.67,5.59,5.72a17.39,17.39,0,0,1,3.85,7.09Z" style="opacity:0.30000000000000004"></path><path d="M238.89,276.38c2.63-4.4,3.34-9.46,4.27-14.41.81-4.33,1.74-10.59,2.42-15a86.9,86.9,0,0,1-1.44,15.18c-.95,4.93-1.95,10.24-5.25,14.23Z" style="opacity:0.30000000000000004"></path><path d="M258.12,390.07a54.65,54.65,0,0,0,2.94-11.18c.7-4.14.72-8.35,1.34-12.5a110.46,110.46,0,0,1,8.37-27.68c7.75-17.75,18.59-33.9,27.15-51.24A132.39,132.39,0,0,0,309,257.21c.2-.94-1.24-1.34-1.45-.4-4.12,19-13.89,36-23.38,52.8-9.41,16.6-18.92,33.74-22.59,52.67-.5,2.53-.88,5.09-1.14,7.66-.24,2.38-.29,4.77-.63,7.13a54.63,54.63,0,0,1-3.16,12.6c-.36.9,1.09,1.29,1.45.4Z" style="fill:#263238"></path><path d="M294.83,236.75a10.78,10.78,0,0,0-4.56,6.05,16.63,16.63,0,0,0,2.13,14.3,7.15,7.15,0,0,0,1.75,2,5,5,0,0,0,2.93,1,5.81,5.81,0,0,0,1.83-.32,7.21,7.21,0,0,0,3.84-2.95,8.81,8.81,0,0,0,1.2-3.95C304.53,246.85,302.75,239.24,294.83,236.75Z" style="fill:#263238"></path><path d="M292.31,239l5.08,15.15,1.08-15.6s-1.69-2.1-3.64-1.77C293.41,237,292.31,239,292.31,239Z" style="fill:#FF2727"></path></g></svg>
